<svg width="776" height="775" viewBox="0 0 776 775" fill="none" xmlns="http://www.w3.org/2000/svg">
<g clip-path="url(#clip0_1968_366)">
<path d="M388.22 725.21C574.782 725.21 726.02 573.972 726.02 387.41C726.02 200.848 574.782 49.61 388.22 49.61C201.658 49.61 50.4199 200.848 50.4199 387.41C50.4199 573.972 201.658 725.21 388.22 725.21Z" fill="white"/>
<path d="M388.22 0C174.26 0 0.80957 173.45 0.80957 387.41C0.80957 601.37 174.26 774.82 388.22 774.82C602.18 774.82 775.63 601.37 775.63 387.41C775.62 173.45 602.18 0 388.22 0ZM614.68 241.37L257.04 599.01L108.17 460.55C96.9696 450.14 96.3396 432.62 106.75 421.42C117.16 410.22 134.68 409.59 145.88 420L255.65 522.09L575.53 202.21C586.35 191.4 603.87 191.4 614.69 202.21C625.5 213.02 625.5 230.55 614.69 241.37H614.68Z" fill="#0ECF84"/>
</g>
<defs>
<clipPath id="clip0_1968_366">
<rect width="774.81" height="774.81" fill="white" transform="translate(0.80957)"/>
</clipPath>
</defs>
</svg>
