<svg width="775" height="775" viewBox="0 0 775 775" fill="none" xmlns="http://www.w3.org/2000/svg">
<path d="M387.41 0C173.45 0 0 173.45 0 387.41C0 601.37 173.45 774.82 387.41 774.82C601.37 774.82 774.82 601.37 774.82 387.41C774.81 173.45 601.37 0 387.41 0ZM613.87 241.37L256.23 599.01L107.36 460.55C96.16 450.14 95.53 432.62 105.94 421.42C116.35 410.22 133.87 409.59 145.07 420L254.84 522.09L574.72 202.21C585.54 191.4 603.06 191.4 613.88 202.21C624.69 213.02 624.69 230.55 613.88 241.37H613.87Z" fill="black"/>
</svg>
