<svg width="16" height="17" viewBox="0 0 16 17" fill="none" xmlns="http://www.w3.org/2000/svg">
<path d="M3.01495 4.45703L0.930409 2.3725L1.87322 1.42969L15.0726 14.629L14.1298 15.5719L11.9231 13.3652C10.7889 14.0843 9.44384 14.5008 8.0015 14.5008C4.40672 14.5008 1.41607 11.9143 0.789062 8.50079C1.08018 6.91587 1.88085 5.50925 3.01495 4.45703ZM9.83977 11.2819L8.86377 10.3059C8.60264 10.4308 8.31024 10.5008 8.0015 10.5008C6.8969 10.5008 6.00148 9.60532 6.00148 8.50079C6.00148 8.19199 6.07145 7.89959 6.19639 7.63845L5.22041 6.6625C4.8714 7.18945 4.66814 7.82139 4.66814 8.50079C4.66814 10.3417 6.16053 11.8341 8.0015 11.8341C8.68084 11.8341 9.31277 11.6309 9.83977 11.2819ZM5.31761 3.00742C6.14882 2.68038 7.05417 2.50076 8.0015 2.50076C11.5962 2.50076 14.5869 5.08727 15.2139 8.50079C15.0058 9.63385 14.5372 10.6759 13.8725 11.5623L11.2993 8.98912C11.3227 8.82972 11.3348 8.66665 11.3348 8.50079C11.3348 6.65981 9.84244 5.16743 8.0015 5.16743C7.83557 5.16743 7.6725 5.17954 7.5131 5.20294L5.31761 3.00742Z" fill="#305335"/>
</svg>
