<svg width="14" height="11" viewBox="0 0 14 11" fill="none" xmlns="http://www.w3.org/2000/svg">
<path d="M11.2344 10.54L6.44483 5.72336C5.95797 5.78448 5.49786 5.91954 5.06453 6.12853C4.6312 6.33761 4.25447 6.61021 3.93434 6.94631L3.08853 6.08384C3.40866 5.76372 3.76959 5.48661 4.17132 5.25252C4.57306 5.01852 4.99827 4.84284 5.44695 4.72548L3.84267 3.12133C3.45167 3.29701 3.06556 3.51472 2.68431 3.77445C2.30307 4.03418 1.95239 4.3241 1.63226 4.64423L0.796875 3.78176C1.12052 3.45811 1.46583 3.16471 1.83281 2.90155C2.19979 2.6383 2.56975 2.41157 2.94269 2.22135L1.75319 1.03172L2.32397 0.460938L11.8323 9.96922L11.2344 10.54ZM6.99476 9.85046C6.68854 9.85046 6.42967 9.74334 6.21815 9.52911C6.00672 9.31489 5.901 9.05741 5.901 8.7567C5.901 8.45048 6.00672 8.19165 6.21815 7.98022C6.42967 7.76879 6.68854 7.66307 6.99476 7.66307C7.30098 7.66307 7.55985 7.76879 7.77138 7.98022C7.98281 8.19165 8.08852 8.45048 8.08852 8.7567C8.08852 9.05741 7.98281 9.31489 7.77138 9.52911C7.55985 9.74334 7.30098 9.85046 6.99476 9.85046ZM10.1906 6.78381L9.87859 6.47181L9.56659 6.15981L8.02813 4.62134C8.54758 4.69357 9.05607 4.85345 9.55359 5.10099C10.0512 5.34862 10.5003 5.67276 10.901 6.07342L10.1906 6.78381ZM12.3573 4.64423C11.6621 3.94909 10.8564 3.40517 9.94007 3.01246C9.02375 2.61975 8.04198 2.4234 6.99476 2.4234C6.80518 2.4234 6.61975 2.43017 6.43847 2.44371C6.25728 2.45725 6.0816 2.47756 5.91143 2.50465L4.874 1.46722C5.19133 1.38317 5.52499 1.32016 5.875 1.27818C6.22501 1.23611 6.59826 1.21507 6.99476 1.21507C8.21766 1.21507 9.35828 1.44302 10.4166 1.89893C11.4749 2.35483 12.4038 2.98244 13.2031 3.78176L12.3573 4.64423Z" fill="#E15959"/>
</svg>
