<svg width="12" height="14" viewBox="0 0 12 14" fill="none" xmlns="http://www.w3.org/2000/svg">
<path d="M10.6667 5.66732H11.3333C11.7015 5.66732 12 5.96578 12 6.33398V13.0007C12 13.3689 11.7015 13.6673 11.3333 13.6673H0.666667C0.29848 13.6673 0 13.3689 0 13.0007V6.33398C0 5.96578 0.29848 5.66732 0.666667 5.66732H1.33333V5.00065C1.33333 2.42332 3.42267 0.333984 6 0.333984C8.57733 0.333984 10.6667 2.42332 10.6667 5.00065V5.66732ZM9.33333 5.66732V5.00065C9.33333 3.1597 7.84093 1.66732 6 1.66732C4.15905 1.66732 2.66667 3.1597 2.66667 5.00065V5.66732H9.33333ZM5.33333 8.33398V11.0007H6.66667V8.33398H5.33333Z" fill="#305335"/>
</svg>
