<svg width="23" height="33" viewBox="0 0 23 33" fill="none" xmlns="http://www.w3.org/2000/svg">
<g clip-path="url(#clip0_440_10303)">
<path opacity="0.998" fill-rule="evenodd" clip-rule="evenodd" d="M11.4469 0.748047C11.4852 0.748047 11.5236 0.748047 11.5619 0.748047C11.7019 0.770371 11.8184 0.842022 11.9113 0.962997C14.2766 4.47487 16.635 7.99224 18.9867 11.5151C19.1084 11.7938 19.0686 12.0397 18.8673 12.2528C18.7941 12.3145 18.7115 12.3536 18.6197 12.37C17.7293 12.3732 16.8391 12.3766 15.9487 12.3798C18.1852 15.7105 20.4184 19.0439 22.6483 22.3799C22.7044 22.473 22.7382 22.574 22.75 22.6828C22.75 22.7088 22.75 22.7348 22.75 22.7609C22.71 23.0738 22.5479 23.2513 22.2636 23.2934C19.0619 23.2983 15.8603 23.3 12.6586 23.2983C12.4994 21.7479 12.3416 20.1976 12.1854 18.6475C13.0474 17.2593 13.9127 15.8734 14.7812 14.4902C14.7753 14.4837 14.7695 14.4837 14.7636 14.4902C13.8393 15.4265 12.9151 16.3629 11.9909 17.2992C11.9879 17.296 11.9849 17.2927 11.982 17.2895C11.8273 14.7913 11.671 12.2933 11.5133 9.7955C11.3863 11.7858 11.2551 13.7758 11.1197 15.7653C10.2678 14.9072 9.41733 14.0474 8.5681 13.1859C9.35693 14.4756 10.1529 15.7619 10.9561 17.0452C10.9561 17.1333 10.9501 17.2213 10.9384 17.309C10.7261 19.3086 10.5154 21.3082 10.306 23.3081C7.11615 23.3037 3.9263 23.2988 0.736439 23.2934C0.452129 23.2513 0.289982 23.0738 0.25 22.7609C0.25 22.7348 0.25 22.7088 0.25 22.6828C0.261732 22.574 0.295635 22.473 0.35171 22.3799C2.5908 19.0481 4.82989 15.7164 7.06899 12.3847C6.17277 12.3766 5.27655 12.3717 4.38031 12.37C4.14694 12.3174 4.00395 12.1627 3.95136 11.9059C3.93048 11.7673 3.95112 11.637 4.01327 11.5151C6.3755 7.99273 8.73988 4.47211 11.1064 0.953227C11.1984 0.839737 11.312 0.771343 11.4469 0.748047Z" fill="white"/>
<g opacity="0.995">
<path opacity="0.995" fill-rule="evenodd" clip-rule="evenodd" d="M13.3573 32.2461C12.1132 32.2461 10.8691 32.2461 9.625 32.2461C9.90466 32.1407 10.1007 31.9356 10.2131 31.6305C10.278 31.4516 10.3163 31.266 10.3281 31.0736C10.3325 28.8525 10.3341 26.6313 10.3325 24.4102C11.0961 24.4102 11.8597 24.4102 12.6232 24.4102C12.6189 26.6445 12.6233 28.8787 12.6365 31.1127C12.6597 31.3915 12.7422 31.6455 12.8841 31.8748C13.0092 32.0506 13.1669 32.1744 13.3573 32.2461Z" fill="white"/>
</g>
</g>
<defs>
<clipPath id="clip0_440_10303">
<rect width="22.5" height="31.5" fill="white" transform="translate(0.25 0.75)"/>
</clipPath>
</defs>
</svg>
