<svg width="776" height="776" viewBox="0 0 776 776" fill="none" xmlns="http://www.w3.org/2000/svg">
<g clip-path="url(#clip0_1968_447)">
<path d="M388.229 725.831C574.791 725.831 726.029 574.593 726.029 388.031C726.029 201.469 574.791 50.2312 388.229 50.2312C201.667 50.2312 50.4292 201.469 50.4292 388.031C50.4292 574.593 201.667 725.831 388.229 725.831Z" fill="white"/>
<path d="M388.229 0.621094C174.269 0.621094 0.819336 174.071 0.819336 388.031C0.819336 601.991 174.269 775.441 388.229 775.441C602.189 775.441 775.639 601.991 775.639 388.031C775.629 174.071 602.189 0.621094 388.229 0.621094ZM577.189 537.831C587.999 548.641 587.999 566.171 577.189 576.991C571.779 582.391 564.699 585.101 557.609 585.101C550.519 585.101 543.439 582.401 538.029 576.991L388.229 427.191L238.429 576.991C233.019 582.391 225.939 585.101 218.849 585.101C211.759 585.101 204.679 582.401 199.269 576.991C188.459 566.181 188.459 548.651 199.269 537.831L349.069 388.031L199.269 238.231C188.459 227.421 188.459 209.891 199.269 199.071C210.089 188.261 227.609 188.261 238.429 199.071L388.229 348.871L538.029 199.071C548.849 188.261 566.369 188.261 577.189 199.071C587.999 209.881 587.999 227.411 577.189 238.231L427.389 388.031L577.189 537.831Z" fill="#FC5A5C"/>
</g>
<defs>
<clipPath id="clip0_1968_447">
<rect width="774.81" height="774.81" fill="white" transform="translate(0.819336 0.621094)"/>
</clipPath>
</defs>
</svg>
