<svg width="23" height="23" viewBox="0 0 23 23" fill="none" xmlns="http://www.w3.org/2000/svg">
<rect width="22.5" height="22.5" rx="11.25" fill="#1C3233"/>
<circle cx="11.5" cy="11.5" r="6.5" fill="white"/>
<path d="M8 16.0625L11.375 12.6875L14.75 16.0625L16.0625 14.75L12.6875 11.375L16.0625 8L14.75 6.6875L11.375 10.0625L8 6.6875L6.6875 8L10.0625 11.375L6.6875 14.75L8 16.0625ZM11.375 20.75C10.0781 20.75 8.85938 20.5039 7.71875 20.0117C6.57813 19.5195 5.58594 18.8516 4.74219 18.0078C3.89844 17.1641 3.23047 16.1719 2.73828 15.0313C2.24609 13.8906 2 12.6719 2 11.375C2 10.0781 2.24609 8.85938 2.73828 7.71875C3.23047 6.57813 3.89844 5.58594 4.74219 4.74219C5.58594 3.89844 6.57813 3.23047 7.71875 2.73828C8.85938 2.24609 10.0781 2 11.375 2C12.6719 2 13.8906 2.24609 15.0313 2.73828C16.1719 3.23047 17.1641 3.89844 18.0078 4.74219C18.8516 5.58594 19.5195 6.57813 20.0117 7.71875C20.5039 8.85938 20.75 10.0781 20.75 11.375C20.75 12.6719 20.5039 13.8906 20.0117 15.0313C19.5195 16.1719 18.8516 17.1641 18.0078 18.0078C17.1641 18.8516 16.1719 19.5195 15.0313 20.0117C13.8906 20.5039 12.6719 20.75 11.375 20.75Z" fill="#E63710"/>
</svg>
