<svg width="20" height="21" viewBox="0 0 20 21" fill="none" xmlns="http://www.w3.org/2000/svg">
<path d="M8.83073 14.2448L14.7057 8.36979L13.5391 7.20313L8.83073 11.9115L6.45573 9.53646L5.28906 10.7031L8.83073 14.2448ZM9.9974 18.7448C8.84462 18.7448 7.76129 18.526 6.7474 18.0885C5.73351 17.651 4.85156 17.0573 4.10156 16.3073C3.35156 15.5573 2.75781 14.6753 2.32031 13.6615C1.88281 12.6476 1.66406 11.5642 1.66406 10.4115C1.66406 9.25868 1.88281 8.17535 2.32031 7.16146C2.75781 6.14757 3.35156 5.26563 4.10156 4.51563C4.85156 3.76563 5.73351 3.17188 6.7474 2.73438C7.76129 2.29688 8.84462 2.07812 9.9974 2.07812C11.1502 2.07812 12.2335 2.29688 13.2474 2.73438C14.2613 3.17188 15.1432 3.76563 15.8932 4.51563C16.6432 5.26563 17.237 6.14757 17.6745 7.16146C18.112 8.17535 18.3307 9.25868 18.3307 10.4115C18.3307 11.5642 18.112 12.6476 17.6745 13.6615C17.237 14.6753 16.6432 15.5573 15.8932 16.3073C15.1432 17.0573 14.2613 17.651 13.2474 18.0885C12.2335 18.526 11.1502 18.7448 9.9974 18.7448Z" fill="#2E5B55"/>
</svg>
