<svg width="18" height="20" viewBox="0 0 18 20" fill="none" xmlns="http://www.w3.org/2000/svg">
<path d="M8.99716 12.272C8.78016 12.272 8.57206 12.3582 8.41862 12.5117C8.26518 12.6651 8.17898 12.8732 8.17898 13.0902C8.17898 13.3072 8.26518 13.5153 8.41862 13.6687C8.57206 13.8222 8.78016 13.9084 8.99716 13.9084C9.80626 13.9084 10.5972 13.6685 11.2699 13.2189C11.9427 12.7694 12.467 12.1305 12.7767 11.383C13.0863 10.6355 13.1673 9.81294 13.0095 9.01938C12.8516 8.22582 12.462 7.49689 11.8899 6.92476C11.3177 6.35264 10.5888 5.96302 9.79526 5.80517C9.0017 5.64732 8.17915 5.72834 7.43164 6.03797C6.68412 6.3476 6.04521 6.87194 5.59569 7.54469C5.14618 8.21743 4.90625 9.00837 4.90625 9.81747C4.90625 10.0345 4.99245 10.2426 5.14589 10.396C5.29933 10.5495 5.50744 10.6357 5.72443 10.6357C5.94143 10.6357 6.14954 10.5495 6.30297 10.396C6.45641 10.2426 6.54261 10.0345 6.54261 9.81747C6.54261 9.33201 6.68657 8.85745 6.95628 8.4538C7.22599 8.05015 7.60934 7.73555 8.05785 7.54977C8.50636 7.36399 8.99988 7.31538 9.47602 7.41009C9.95215 7.5048 10.3895 7.73857 10.7328 8.08185C11.0761 8.42512 11.3098 8.86248 11.4045 9.33862C11.4993 9.81475 11.4506 10.3083 11.2649 10.7568C11.0791 11.2053 10.7645 11.5886 10.3608 11.8584C9.95718 12.1281 9.48262 12.272 8.99716 12.272Z" fill="white"/>
<path d="M18 13.9091V5.72728C18 4.85929 17.6552 4.02686 17.0414 3.41311C16.4277 2.79935 15.5953 2.45455 14.7273 2.45455H13.5286L12.6205 1.09228C12.3959 0.755747 12.0917 0.479933 11.7348 0.28937C11.378 0.0988067 10.9796 -0.000596954 10.575 2.69701e-06H7.42091C7.01636 -0.000596954 6.61793 0.0988067 6.26107 0.28937C5.90421 0.479933 5.59998 0.755747 5.37545 1.09228L4.47136 2.45455H3.27273C2.40475 2.45455 1.57231 2.79935 0.958559 3.41311C0.344804 4.02686 0 4.85929 0 5.72728V13.9091C0 14.7771 0.344804 15.6095 0.958559 16.2233C1.57231 16.837 2.40475 17.1818 3.27273 17.1818H5.38773L4.33227 18.2414C4.24662 18.3147 4.17706 18.405 4.12795 18.5065C4.07884 18.608 4.05124 18.7186 4.04689 18.8312C4.04254 18.9439 4.06153 19.0563 4.10266 19.1613C4.14379 19.2663 4.20619 19.3616 4.28592 19.4414C4.36566 19.5211 4.46102 19.5835 4.56601 19.6246C4.671 19.6657 4.78336 19.6847 4.89604 19.6804C5.00872 19.676 5.11929 19.6484 5.22079 19.5993C5.3223 19.5502 5.41256 19.4807 5.48591 19.395L7.94045 16.9405C8.09284 16.7872 8.17838 16.5798 8.17838 16.3636C8.17838 16.1475 8.09284 15.9401 7.94045 15.7868L5.48591 13.3323C5.32939 13.1982 5.12806 13.1282 4.92214 13.1361C4.71622 13.1441 4.52089 13.2295 4.37518 13.3752C4.22946 13.5209 4.1441 13.7162 4.13615 13.9221C4.12819 14.1281 4.19823 14.3294 4.33227 14.4859L5.38773 15.5455H3.27273C2.83874 15.5455 2.42252 15.3731 2.11564 15.0662C1.80877 14.7593 1.63636 14.3431 1.63636 13.9091V5.72728C1.63636 5.29328 1.80877 4.87707 2.11564 4.57019C2.42252 4.26331 2.83874 4.09091 3.27273 4.09091H4.90909C5.04348 4.09066 5.17574 4.05731 5.29418 3.99381C5.41262 3.93031 5.5136 3.83861 5.58818 3.72682L6.74182 2.00046C6.8164 1.88866 6.91738 1.79697 7.03582 1.73347C7.15426 1.66996 7.28652 1.63662 7.42091 1.63637H10.5791C10.7135 1.63662 10.8457 1.66996 10.9642 1.73347C11.0826 1.79697 11.1836 1.88866 11.2582 2.00046L12.4118 3.72682C12.4864 3.83861 12.5874 3.93031 12.7058 3.99381C12.8243 4.05731 12.9565 4.09066 13.0909 4.09091H14.7273C15.1613 4.09091 15.5775 4.26331 15.8844 4.57019C16.1912 4.87707 16.3636 5.29328 16.3636 5.72728V13.9091C16.3636 14.3431 16.1912 14.7593 15.8844 15.0662C15.5775 15.3731 15.1613 15.5455 14.7273 15.5455H10.6609C10.4439 15.5455 10.2358 15.6317 10.0824 15.7851C9.92893 15.9385 9.84273 16.1466 9.84273 16.3636C9.84273 16.5806 9.92893 16.7887 10.0824 16.9422C10.2358 17.0956 10.4439 17.1818 10.6609 17.1818H14.7273C15.5953 17.1818 16.4277 16.837 17.0414 16.2233C17.6552 15.6095 18 14.7771 18 13.9091Z" fill="white"/>
</svg>
