<svg width="663" height="674" viewBox="0 0 663 674" fill="none" xmlns="http://www.w3.org/2000/svg">
<path d="M654.759 626.06L471.539 442.84C511.999 395.88 536.499 334.79 536.499 268.08C536.499 120.26 416.239 0 268.419 0C120.599 0 0.338867 120.26 0.338867 268.08C0.338867 415.9 120.599 536.16 268.419 536.16C329.579 536.16 385.999 515.56 431.159 480.96L615.509 665.31C620.929 670.73 628.029 673.44 635.139 673.44C642.249 673.44 649.349 670.73 654.769 665.31C665.609 654.47 665.609 636.9 654.769 626.06H654.759ZM55.8489 268.08C55.8489 150.87 151.209 55.51 268.419 55.51C385.629 55.51 480.989 150.87 480.989 268.08C480.989 385.29 385.629 480.65 268.419 480.65C151.209 480.65 55.8489 385.29 55.8489 268.08Z" fill="black"/>
</svg>
