<svg width="23" height="23" viewBox="0 0 23 23" fill="none" xmlns="http://www.w3.org/2000/svg">
<rect width="22.5" height="22.5" rx="11.25" fill="#1C3233"/>
<circle cx="11.25" cy="11.25" r="9.25" fill="#007BFF"/>
<path d="M15.7422 16.9091L10.9526 12.0925C10.4658 12.1536 10.0057 12.2887 9.57234 12.4977C9.13901 12.7068 8.76228 12.9793 8.44216 13.3155L7.59634 12.453C7.91647 12.1329 8.2774 11.8558 8.67914 11.6217C9.08087 11.3877 9.50608 11.212 9.95476 11.0946L8.35048 9.49047C7.95949 9.66615 7.57337 9.88386 7.19213 10.1436C6.81088 10.4033 6.4602 10.6932 6.14007 11.0134L5.30469 10.1509C5.62833 9.82726 5.97365 9.53385 6.34063 9.27069C6.7076 9.00744 7.07756 8.78071 7.4505 8.59049L6.261 7.40086L6.83178 6.83008L16.3401 16.3384L15.7422 16.9091ZM11.5026 16.2196C11.1964 16.2196 10.9375 16.1125 10.726 15.8983C10.5145 15.684 10.4088 15.4266 10.4088 15.1258C10.4088 14.8196 10.5145 14.5608 10.726 14.3494C10.9375 14.1379 11.1964 14.0322 11.5026 14.0322C11.8088 14.0322 12.0677 14.1379 12.2792 14.3494C12.4906 14.5608 12.5963 14.8196 12.5963 15.1258C12.5963 15.4266 12.4906 15.684 12.2792 15.8983C12.0677 16.1125 11.8088 16.2196 11.5026 16.2196ZM14.6984 13.153L14.3864 12.841L14.0744 12.529L12.5359 10.9905C13.0554 11.0627 13.5639 11.2226 14.0614 11.4701C14.559 11.7178 15.0082 12.0419 15.4088 12.4426L14.6984 13.153ZM16.8651 11.0134C16.1699 10.3182 15.3642 9.77431 14.4479 9.3816C13.5316 8.98889 12.5498 8.79254 11.5026 8.79254C11.313 8.79254 11.1276 8.79931 10.9463 8.81285C10.7651 8.82639 10.5894 8.8467 10.4192 8.87379L9.38181 7.83636C9.69914 7.75231 10.0328 7.6893 10.3828 7.64732C10.7328 7.60525 11.1061 7.58421 11.5026 7.58421C12.7255 7.58421 13.8661 7.81216 14.9244 8.26807C15.9827 8.72397 16.9116 9.35158 17.7109 10.1509L16.8651 11.0134Z" fill="white"/>
</svg>
