<svg width="467" height="677" viewBox="0 0 467 677" fill="none" xmlns="http://www.w3.org/2000/svg">
<path d="M233.24 0.810547C160.45 0.810547 101.22 60.0305 101.22 132.821C101.22 205.611 160.44 264.831 233.23 264.831C306.02 264.831 365.24 205.611 365.24 132.821C365.24 60.0305 306.03 0.810547 233.24 0.810547Z" fill="#305335"/>
<path d="M233.24 314.831C104.75 314.831 0.219727 419.361 0.219727 547.841V551.841L1.77973 555.521C2.32973 556.811 15.6097 587.541 51.2697 617.551C83.3897 644.591 141.03 676.831 233.24 676.831C325.45 676.831 383.08 644.591 415.2 617.551C450.85 587.531 464.14 556.811 464.69 555.521L466.25 551.841V547.841C466.25 419.361 361.72 314.831 233.24 314.831ZM424.57 547.371C425.33 545.861 426.07 544.341 426.77 542.811C426.77 543.011 426.79 543.211 426.79 543.411C426.22 544.491 425.48 545.831 424.56 547.371H424.57Z" fill="#305335"/>
</svg>
