<svg width="775" height="776" viewBox="0 0 775 776" fill="none" xmlns="http://www.w3.org/2000/svg">
<g clip-path="url(#clip0_1968_433)">
<path d="M387.41 725.831C573.972 725.831 725.21 574.593 725.21 388.031C725.21 201.469 573.972 50.2312 387.41 50.2312C200.849 50.2312 49.6104 201.469 49.6104 388.031C49.6104 574.593 200.849 725.831 387.41 725.831Z" fill="white"/>
<path d="M387.41 0.621094C173.45 0.621094 0 174.071 0 388.031C0 601.991 173.45 775.441 387.41 775.441C601.37 775.441 774.82 601.991 774.82 388.031C774.81 174.071 601.37 0.621094 387.41 0.621094ZM571.58 575.871C566.23 581.141 559.26 583.771 552.29 583.771C545.32 583.771 538.07 581.031 532.69 575.561L359.95 399.991V151.651C359.95 136.461 372.26 124.151 387.45 124.151C402.64 124.151 414.95 136.461 414.95 151.651V377.471L571.9 536.991C582.55 547.821 582.41 565.231 571.58 575.881V575.871Z" fill="#1ABCFE"/>
</g>
<defs>
<clipPath id="clip0_1968_433">
<rect width="774.81" height="774.81" fill="white" transform="translate(0 0.621094)"/>
</clipPath>
</defs>
</svg>
